<svg width="533.9px" height="141.2px" xmlns="http://www.w3.org/2000/svg" viewBox="-16.94999999999999 4.400000000000006 533.9 141.2" style="background: rgba(0, 0, 0, 0);" preserveAspectRatio="xMidYMid"><defs><linearGradient id="editing-outline-gradient" x1="-0.41354545764260087" x2="1.4135454576426008" y1="0.09326335692419985" y2="0.9067366430758002"><stop offset="0" stop-color="#ee4208"></stop><stop offset="1" stop-color="#4139ff"></stop></linearGradient><filter id="editing-outline" x="-100%" y="-100%" width="300%" height="300%"><feMorphology in="SourceGraphic" operator="dilate" radius="1" result="outline"></feMorphology><feComposite operator="out" in="outline" in2="SourceAlpha"></feComposite></filter></defs><g filter="url(#editing-outline)"><g transform="translate(60.96498215198517, 97.375)"><path d="M31 3.06L31 3.06L31-8.38L31-8.38Q25.06-4.31 22.75-3L22.75-3L22.75-3Q17.38-0.06 13.31-0.06L13.31-0.06L13.31-0.06Q8.44-0.06 4.94-3.63L4.94-3.63L4.94-3.63Q1.38-7.31 1.38-12.06L1.38-12.06L1.38-12.06Q1.69-17.06 3.50-22.19L3.50-22.19L3.50-22.19Q7.25-33.06 15.94-38.13L15.94-38.13L15.94-38.13Q20.25-40.69 25.88-40.69L25.88-40.69L25.88-40.69Q26-40.69 26.13-40.69L26.13-40.69L27.81-40.75L27.81-40.75Q30.69-40.75 30.44-38.50L30.44-38.50L30.44-38.50Q25.44-38.25 21.06-36.19L21.06-36.19L21.06-36.19Q16.69-34.13 13.47-30.66L13.47-30.66L13.47-30.66Q10.25-27.19 8.41-22.56L8.41-22.56L8.41-22.56Q6.56-17.94 6.56-13.13L6.56-13.13L6.56-13.13Q6.56-8.31 9.06-6.19L9.06-6.19L9.06-6.19Q11.56-4.06 15.50-4.06L15.50-4.06L15.50-4.06Q18.88-4.06 24.88-7L24.88-7L24.88-7Q28.69-8.88 30.56-11.25L30.56-11.25L30.56-11.25Q31.50-12.38 31.50-13.63L31.50-13.63L31.50-22.88L31.50-22.88Q29.63-22.88 22.78-21.44L22.78-21.44L22.78-21.44Q15.94-20 14.88-19.81L14.88-19.81L14.88-19.81Q14.56-20 14.13-20.22L14.13-20.22L14.13-20.22Q13.69-20.44 13.63-20.88L13.63-20.88L13.63-20.88Q13.50-21.81 16.38-23.75L16.38-23.75L16.38-23.75Q17.06-24.13 24.63-25.22L24.63-25.22L24.63-25.22Q32.19-26.31 34.25-26.63L34.25-26.63L34.25-26.63Q36.31-26.94 37.69-27.13L37.69-27.13L37.69-27.13Q38.31-27 39.25-27.16L39.25-27.16L39.25-27.16Q40.19-27.31 41-27.25L41-27.25L41-27.25Q43-27.19 42.88-25.06L42.88-25.06L37.69-22.94L37.69-22.94Q36.50-19.13 36.50-8.56L36.50-8.56L36.63 0.75L36.63 0.75Q36.63 2 36.63 3.06L36.63 3.06L36.63 3.06Q34.75 4 33 4L33 4L33 4Q31.25 4 31 3.06ZM58.75-4.38L58.75-4.38L58.75-4.38Q64.25-4.38 75.31-9.38L75.31-9.38L75.31-9.38Q76-9.38 76.44-8.91L76.44-8.91L76.44-8.91Q76.88-8.44 76.88-7.81L76.88-7.81L76.88-7.81Q74.38-3.56 67.31-1.19L67.31-1.19L67.31-1.19Q60.25 1.19 54.13-0.38L54.13-0.38L54.13-0.38Q47.19-2.19 45.69-8.19L45.69-8.19L45.69-8.19Q45.56-9.38 45.56-11.38L45.56-11.38L45.56-11.38Q45.56-13.38 46.59-16.66L46.59-16.66L46.59-16.66Q47.63-19.94 50.13-22.88L50.13-22.88L50.13-22.88Q52.63-25.81 56-27.50L56-27.50L56-27.50Q59.38-29.19 63.19-29.19L63.19-29.19L63.19-29.19Q66.81-29.19 71.31-26.69L71.31-26.69L71.31-26.69Q73.44-25.50 74.69-24L74.69-24L74.69-24Q75.94-22.50 75.94-20.94L75.94-20.94L75.94-20.94Q75.94-20.50 75.88-20.06L75.88-20.06L75.88-20.06Q75.75-16.25 72.19-15.25L72.19-15.25L72.19-15.25Q70.63-14.81 68.56-14.81L68.56-14.81L59.56-15.19L59.56-15.19Q55.06-15.19 52.69-13.25L52.69-13.25L52.69-13.25Q51.31-12.19 50.75-10.06L50.75-10.06L50.75-10.06Q52.31-4.38 58.75-4.38ZM69.91-23.69L69.91-23.69L69.91-23.69Q68.50-24.69 67-25.13L67-25.13L67-25.13Q65.50-25.56 64.50-25.56L64.50-25.56L64.50-25.56Q63.50-25.56 61.25-24.91L61.25-24.91L61.25-24.91Q59-24.25 57.25-23.44L57.25-23.44L57.25-23.44Q52.94-21.44 52.94-19.25L52.94-19.25L52.94-19.25Q57.94-18.81 60.44-18.81L60.44-18.81L60.44-18.81Q67.38-18.81 69.81-20L69.81-20L69.81-20Q71.31-20.63 71.31-21.56L71.31-21.56L71.31-21.56Q71.31-22.69 69.91-23.69ZM82.19-11.88L82.19-11.88L82.19-11.88Q82.19-19.25 88.56-23.75L88.56-23.75L88.56-23.75Q93.63-27.31 100.75-28.06L100.75-28.06L100.75-28.06Q101.13-28.06 102.50-28.06L102.50-28.06L102.50-28.06Q103.88-28.06 106.19-27.25L106.19-27.25L106.19-27.25Q111.31-25.50 113.19-21.06L113.19-21.06L113.19-21.06Q113.94-19.31 113.94-18.09L113.94-18.09L113.94-18.09Q113.94-16.88 113.88-16.38L113.88-16.38L113.88-16.38Q113.88-8.56 107.94-4.06L107.94-4.06L107.94-4.06Q102.44 0.06 94.19 0.06L94.19 0.06L94.19 0.06Q88.25 0.06 85.22-2.69L85.22-2.69L85.22-2.69Q82.19-5.44 82.19-11.88ZM86.50-10.38L86.50-10.38L86.50-10.38Q86.50-6.50 88.56-5.13L88.56-5.13L88.56-5.13Q90.13-4.13 93.81-4.13L93.81-4.13L93.81-4.13Q97.50-4.13 100.31-4.69L100.31-4.69L100.31-4.69Q103.13-5.25 105.31-6.63L105.31-6.63L105.31-6.63Q110-9.63 110-15.94L110-15.94L110-15.94Q110-19.69 108-22.06L108-22.06L108-22.06Q105.81-24.63 102.25-24.63L102.25-24.63L102.25-24.63Q99.81-24.19 97.34-23.69L97.34-23.69L97.34-23.69Q94.88-23.19 92.69-21.75L92.69-21.75L92.69-21.75Q87.94-18.69 86.50-10.38ZM121.50-38.38L121.50-38.38L121.50-38.38Q126.13-40 133.75-40L133.75-40L133.75-40Q147.69-40 152.81-33.13L152.81-33.13L152.81-33.13Q154.81-30.50 154.81-26.44L154.81-26.44L154.81-26.44Q154.88-25.88 154.88-25.31L154.88-25.31L154.88-25.31Q154.88-19.06 147.56-12.63L147.56-12.63L147.56-12.63Q140.88-6.56 131.06-2.88L131.06-2.88L131.06-2.88Q124.56-0.38 120.31-0.38L120.31-0.38L120.31-0.38Q118.56-0.38 117.31-0.88L117.31-0.88L117.31-39.88L118.19-39.88L118.19-39.88Q119.63-39.88 120.50-39.41L120.50-39.41L120.50-39.41Q121.38-38.94 121.50-38.38ZM150.63-25.94L150.63-25.94L150.63-25.94Q150.06-31.50 144.44-34.19L144.44-34.19L144.44-34.19Q140.25-36.19 133.94-36.19L133.94-36.19L132.81-36.13L132.81-36.13Q126.88-36 122.56-34.25L122.56-34.25L122.56-4.44L122.56-4.44Q126.94-4.44 133.50-7.63L133.50-7.63L133.50-7.63Q144.88-13.25 149.13-20.69L149.13-20.69L149.13-20.69Q150.63-23.31 150.63-25.94ZM159.81-29.38L163.75-29.38L163.75-29.38Q164.56-17.69 165.13-2.31L165.13-2.31L165.13-2.31Q164.75-0.38 162.13-0.38L162.13-0.38L162.13-0.38Q161.44-0.38 160.72-0.66L160.72-0.66L160.72-0.66Q160-0.94 159.81-1.44L159.81-1.44L159.81-29.38ZM157.94-37.88L157.94-37.88L157.94-37.88Q157.94-40.06 160.50-40.06L160.50-40.06L160.50-40.06Q162.19-40.06 163.25-39.31L163.25-39.31L163.25-39.31Q163.44-38.63 163.44-37.97L163.44-37.97L163.44-37.97Q163.44-37.31 162.94-36.69L162.94-36.69L162.94-36.69Q162.44-36.06 161.44-36.06L161.44-36.06L161.44-36.06Q160.44-36.06 159.44-36.53L159.44-36.53L159.44-36.53Q158.44-37 157.94-37.88ZM189.19-16.13L189.19-16.13L189.19-16.13Q196.06-16.13 196.06-12.63L196.06-12.63L196.06-12.63Q196.06-10 192.25-6.50L192.25-6.50L192.25-6.50Q186.56-1.31 176.94 1.81L176.94 1.81L176.94 1.81Q176.50 1.81 175.97 0.94L175.97 0.94L175.97 0.94Q175.44 0.06 175.16-0.41L175.16-0.41L175.16-0.41Q174.88-0.88 174.75-1L174.75-1L174.75-1Q181.94-3.38 186.56-6.75L186.56-6.75L186.56-6.75Q189.69-9 189.69-10.44L189.69-10.44L189.69-10.44Q189.69-11.88 186-11.88L186-11.88L186-11.88Q182.31-11.88 175.19-10.13L175.19-10.13L175.19-10.13Q171.94-10.25 169.56-12.44L169.56-12.44L169.56-12.44Q167.50-14.38 167.50-16.34L167.50-16.34L167.50-16.34Q167.50-18.31 168.63-19.97L168.63-19.97L168.63-19.97Q169.75-21.63 171.63-23.06L171.63-23.06L171.63-23.06Q173.50-24.50 176-25.69L176-25.69L176-25.69Q182.13-28.63 188.69-28.63L188.69-28.63L188.69-28.63Q190.63-28.63 192.44-28.25L192.44-28.25L192.44-28.25Q193.94-28.25 194.19-26.94L194.19-26.94L194.19-26.94Q194.44-25.63 194.44-22.63L194.44-22.63L194.44-22.63Q190.75-24.31 186.13-24.31L186.13-24.31L186.13-24.31Q180.38-24.31 176.63-22L176.63-22L176.63-22Q172.75-19.75 172.63-16.13L172.63-16.13L172.63-16.13Q172.63-14.38 175.19-14.38L175.19-14.38L179.75-14.88L179.75-14.88Q185.63-16.13 189.19-16.13ZM225.22-6.59L225.22-6.59L225.22-6.59Q227.75-7.63 230.19-8.50L230.19-8.50L230.19-8.50Q232.63-9.38 234.84-9.38L234.84-9.38L234.84-9.38Q237.06-9.38 237.06-8L237.06-8L237.06-8Q237.06-7.69 236.91-7.03L236.91-7.03L236.91-7.03Q236.75-6.38 235.22-5.47L235.22-5.47L235.22-5.47Q233.69-4.56 231.47-3.75L231.47-3.75L231.47-3.75Q229.25-2.94 226.63-2.25L226.63-2.25L226.63-2.25Q224-1.56 221.50-1.06L221.50-1.06L221.50-1.06Q216.31 0 214.13 0L214.13 0L214.13 0Q211.94 0 209.41-0.50L209.41-0.50L209.41-0.50Q206.88-1 204.69-2.13L204.69-2.13L204.69-2.13Q199.63-4.75 199.63-9.88L199.63-9.88L199.63-9.88Q199.63-10.25 199.63-11.38L199.63-11.38L199.63-11.38Q199.63-12.50 200.56-14.59L200.56-14.59L200.56-14.59Q201.50-16.69 203.38-18.78L203.38-18.78L203.38-18.78Q205.25-20.88 207.75-22.63L207.75-22.63L207.75-22.63Q213-26.38 218.75-27.50L218.75-27.50L218.75-27.50Q220.75-27.94 222.09-27.94L222.09-27.94L222.09-27.94Q223.44-27.94 224.31-27.91L224.31-27.91L224.31-27.91Q225.19-27.88 226.13-27.78L226.13-27.78L226.13-27.78Q227.06-27.69 227.75-27.31L227.75-27.31L227.75-27.31Q229.38-26.50 229.38-24.13L229.38-24.13L229.38-24.13Q229.38-22.63 227.25-21.19L227.25-21.19L227.25-21.19Q226.69-20.81 226.25-20.50L226.25-20.50L226.25-20.50Q225.94-21.94 225.44-22.94L225.44-22.94L225.44-22.94Q224.94-23.94 223.25-23.94L223.25-23.94L223.25-23.94Q215.88-22.38 210.56-19.25L210.56-19.25L210.56-19.25Q204.56-15.69 204.56-11.75L204.56-11.75L204.56-11.75Q204.56-11.31 204.63-10.81L204.63-10.81L204.63-10.81Q204.63-6.81 207.69-5.13L207.69-5.13L207.69-5.13Q210-3.88 213.66-3.88L213.66-3.88L213.66-3.88Q217.31-3.88 220-4.72L220-4.72L220-4.72Q222.69-5.56 225.22-6.59ZM242-11.88L242-11.88L242-11.88Q242-19.25 248.38-23.75L248.38-23.75L248.38-23.75Q253.44-27.31 260.56-28.06L260.56-28.06L260.56-28.06Q260.94-28.06 262.31-28.06L262.31-28.06L262.31-28.06Q263.69-28.06 266-27.25L266-27.25L266-27.25Q271.13-25.50 273-21.06L273-21.06L273-21.06Q273.75-19.31 273.75-18.09L273.75-18.09L273.75-18.09Q273.75-16.88 273.69-16.38L273.69-16.38L273.69-16.38Q273.69-8.56 267.75-4.06L267.75-4.06L267.75-4.06Q262.25 0.06 254 0.06L254 0.06L254 0.06Q248.06 0.06 245.03-2.69L245.03-2.69L245.03-2.69Q242-5.44 242-11.88ZM246.31-10.38L246.31-10.38L246.31-10.38Q246.31-6.50 248.38-5.13L248.38-5.13L248.38-5.13Q249.94-4.13 253.63-4.13L253.63-4.13L253.63-4.13Q257.31-4.13 260.13-4.69L260.13-4.69L260.13-4.69Q262.94-5.25 265.13-6.63L265.13-6.63L265.13-6.63Q269.81-9.63 269.81-15.94L269.81-15.94L269.81-15.94Q269.81-19.69 267.81-22.06L267.81-22.06L267.81-22.06Q265.63-24.63 262.06-24.63L262.06-24.63L262.06-24.63Q259.63-24.19 257.16-23.69L257.16-23.69L257.16-23.69Q254.69-23.19 252.50-21.75L252.50-21.75L252.50-21.75Q247.75-18.69 246.31-10.38ZM277-24.19L277-24.19L277-24.19Q276.88-24.50 276.88-24.91L276.88-24.91L276.88-24.91Q276.88-25.31 277.19-26L277.19-26L277.19-26Q277.50-26.69 278.09-27.19L278.09-27.19L278.09-27.19Q278.69-27.69 279.41-27.66L279.41-27.66L279.41-27.66Q280.13-27.63 280.56-26.75L280.56-26.75L291.06-7.25L291.06-7.25Q291.56-8 292.66-10.03L292.66-10.03L292.66-10.03Q293.75-12.06 295.16-14.63L295.16-14.63L295.16-14.63Q296.56-17.19 298.09-19.97L298.09-19.97L298.09-19.97Q299.63-22.75 300.94-25.06L300.94-25.06L300.94-25.06Q303.94-30.38 304.50-30.38L304.50-30.38L304.50-30.38Q305.81-30.38 306.41-29.41L306.41-29.41L306.41-29.41Q307-28.44 307-27.94L307-27.94L307-27.94Q307-27.44 307-27.25L307-27.25L307-27.25Q303.50-19.63 300.53-13.19L300.53-13.19L300.53-13.19Q297.56-6.75 296.59-4.84L296.59-4.84L296.59-4.84Q295.63-2.94 294.88-1.81L294.88-1.81L294.88-1.81Q293.56 0.13 292.31 0.13L292.31 0.13L292.31 0.13Q291.06 0.13 289.44-1.84L289.44-1.84L289.44-1.84Q287.81-3.81 285.75-7.13L285.75-7.13L285.75-7.13Q282.13-13.13 277-24.19ZM322.38-4.38L322.38-4.38L322.38-4.38Q327.88-4.38 338.94-9.38L338.94-9.38L338.94-9.38Q339.63-9.38 340.06-8.91L340.06-8.91L340.06-8.91Q340.50-8.44 340.50-7.81L340.50-7.81L340.50-7.81Q338-3.56 330.94-1.19L330.94-1.19L330.94-1.19Q323.88 1.19 317.75-0.38L317.75-0.38L317.75-0.38Q310.81-2.19 309.31-8.19L309.31-8.19L309.31-8.19Q309.19-9.38 309.19-11.38L309.19-11.38L309.19-11.38Q309.19-13.38 310.22-16.66L310.22-16.66L310.22-16.66Q311.25-19.94 313.75-22.88L313.75-22.88L313.75-22.88Q316.25-25.81 319.63-27.50L319.63-27.50L319.63-27.50Q323-29.19 326.81-29.19L326.81-29.19L326.81-29.19Q330.44-29.19 334.94-26.69L334.94-26.69L334.94-26.69Q337.06-25.50 338.31-24L338.31-24L338.31-24Q339.56-22.50 339.56-20.94L339.56-20.94L339.56-20.94Q339.56-20.50 339.50-20.06L339.50-20.06L339.50-20.06Q339.38-16.25 335.81-15.25L335.81-15.25L335.81-15.25Q334.25-14.81 332.19-14.81L332.19-14.81L323.19-15.19L323.19-15.19Q318.69-15.19 316.31-13.25L316.31-13.25L316.31-13.25Q314.94-12.19 314.38-10.06L314.38-10.06L314.38-10.06Q315.94-4.38 322.38-4.38ZM333.53-23.69L333.53-23.69L333.53-23.69Q332.13-24.69 330.63-25.13L330.63-25.13L330.63-25.13Q329.13-25.56 328.13-25.56L328.13-25.56L328.13-25.56Q327.13-25.56 324.88-24.91L324.88-24.91L324.88-24.91Q322.63-24.25 320.88-23.44L320.88-23.44L320.88-23.44Q316.56-21.44 316.56-19.25L316.56-19.25L316.56-19.25Q321.56-18.81 324.06-18.81L324.06-18.81L324.06-18.81Q331-18.81 333.44-20L333.44-20L333.44-20Q334.94-20.63 334.94-21.56L334.94-21.56L334.94-21.56Q334.94-22.69 333.53-23.69ZM374.94-22.81L374.94-22.81L374.94-22.81Q372.31-24.69 368.19-24.69L368.19-24.69L368.19-24.69Q364.31-24.69 361-23.25L361-23.25L361-23.25Q354.75-20.63 352.44-16.50L352.44-16.50L352.44-16.50Q351.44-14.63 351.44-12.50L351.44-12.50L351.44-12.50Q351.44-12.13 351.44-10.41L351.44-10.41L351.44-10.41Q351.44-8.69 352.06-5.78L352.06-5.78L352.06-5.78Q352.69-2.88 352.69 0.13L352.69 0.13L352.69 0.13Q351.38 0.19 350.56 0.44L350.56 0.44L350.56 0.44Q349.75 0.69 349.19 0.69L349.19 0.69L349.19 0.69Q348.63 0.69 348.22 0.19L348.22 0.19L348.22 0.19Q347.81-0.31 347.31-1.75L347.31-1.75L347.31-1.75Q347.25-2.13 347.06-3.88L347.06-3.88L347.06-3.88Q346.88-5.63 346.59-8.13L346.59-8.13L346.59-8.13Q346.31-10.63 345.97-13.59L345.97-13.59L345.97-13.59Q345.63-16.56 345.31-19.44L345.31-19.44L345.31-19.44Q344.63-25.69 344.25-28.63L344.25-28.63L344.25-28.63Q344.25-30.13 346.44-30.13L346.44-30.13L346.44-30.13Q347.75-30.13 348.50-29.03L348.50-29.03L348.50-29.03Q349.25-27.94 349.69-26.53L349.69-26.53L349.69-26.53Q350.13-25.13 350.28-23.75L350.28-23.75L350.28-23.75Q350.44-22.38 350.56-21.81L350.56-21.81L350.56-21.81Q358.81-29.19 371.06-29.19L371.06-29.19L371.06-29.19Q372.44-29.19 373.94-29.13L373.94-29.13L373.94-29.13Q374.31-29.19 374.88-29.19L374.88-29.19L374.88-29.19Q375.44-29.19 376-28.44L376-28.44L376-28.44Q376.69-27.56 376.69-26.31L376.69-26.31L376.69-26.31Q376.69-23.19 374.94-22.81Z" fill="url(#editing-outline-gradient)"></path></g></g><style>text {
  font-size: 64px;
  font-family: Arial Black;
  dominant-baseline: central;
  text-anchor: middle;
}</style></svg>